# xmcd CD database file
#
# Track frame offsets:
#	150
#	12485
#	39221
#	62660
#	76854
#	95439
#	122540
#	134446
#	162700
#	183732
#	207189
#
# Disc length: 3056 seconds
#
# Revision: 0
# Processed by: cddbd v1.5PL3 Copyright (c) Steve Scherf et al.
# Submitted via: CDex 1.50
#
DISCID=910bee0b
DTITLE=Diverse - Jazz Ballads - After midnight 3
DYEAR=2001
DGENRE=Jazz
TTITLE0=Clyde Bernhardt - How can I believe in you
TTITLE1=Charles Famborough - Beautiful love
TTITLE2=Ted Rosenthal - Calling you
TTITLE3=Ken Hensley - Hellhound on my trail
TTITLE4=Larry Coryell - Oshum, goddes of love
TTITLE5=Donald Harrison - Too fast 
TTITLE6=Kenia and Romero Lubambo - Ballad
TTITLE7=Jim Hall - All across the city
TTITLE8=Thus Spike Z - Nightshade
TTITLE9=Charles Famborough - The tonality of atonement
TTITLE10=Bobby Murray - The future is now
EXTD=YEAR: 2001
EXTT0=
EXTT1=
EXTT2=
EXTT3=
EXTT4=
EXTT5=
EXTT6=
EXTT7=
EXTT8=
EXTT9=
EXTT10=
PLAYORDER=
